<svg xmlns="http://www.w3.org/2000/svg" width="42" height="42" viewBox="0 0 42 42">
  <g fill="none" fill-rule="evenodd" transform="translate(0 1)">
    <circle cx="20.606" cy="20.326" r="20" fill="#87BCD2" stroke="#87BCD2"/>
    <path fill="#FFF" fill-rule="nonzero" d="M31.2889099,8.38842562 C31.0967214,8.30466511 30.87552,8.35103755 30.7284083,8.50564356 L25.8107586,13.6768963 C24.2174496,12.9063931 22.4279027,12.5009735 20.6064504,12.5009735 C18.7849981,12.5009735 16.9954512,12.9064399 15.4021421,13.6769431 L10.484448,8.50559676 C10.3372918,8.35099076 10.1161349,8.30461831 9.92394634,8.38837883 C9.73175783,8.47213935 9.60645039,8.66932752 9.60645039,8.88808753 L9.60645039,22.4032449 C9.60645039,25.0651916 10.7615839,27.5624717 12.8591041,29.4351042 C14.9324617,31.286118 17.6838412,32.3055163 20.6064504,32.3055163 C23.5290596,32.3055163 26.2804836,31.2860712 28.3537967,29.4351042 C30.4512724,27.5624717 31.6064504,25.0652384 31.6064504,22.4032449 L31.6064504,8.88808753 C31.6064504,8.66932752 31.4810984,8.47213935 31.2889099,8.38842562 Z M20.6064949,31.2238358 C15.1083193,31.2238358 10.635075,27.2669234 10.635075,22.4032449 L10.635075,10.1938157 L14.4774213,14.2343015 C13.9054836,14.6249343 13.4122635,15.0681164 13.0052813,15.5595894 C12.8187441,15.7848537 12.8412158,16.1264937 13.0553865,16.3226524 C13.1528379,16.4118878 13.2731616,16.455593 13.3929512,16.455593 C13.5365475,16.455593 13.6784083,16.3918133 13.7810661,16.269916 C14.6489625,15.2396617 15.8686187,14.6517471 15.9312279,14.6136571 C17.3654107,13.938566 18.9704229,13.582654 20.6064504,13.582654 C22.3097594,13.582654 23.9800062,13.9673441 25.458198,14.697558 C25.4814261,14.7162286 26.9710984,15.5146676 27.4318347,16.2699628 C27.5154472,16.4070212 27.6763533,16.4556398 27.8199496,16.4556398 C27.9397392,16.4556398 28.0600183,16.4118878 28.1575143,16.3226992 C28.3717295,16.1265405 28.3941567,15.7849005 28.2076195,15.5596362 C27.8016607,15.0694266 27.3080847,14.625917 26.7353015,14.2345822 L30.5778703,10.1938157 L30.5778703,22.4033385 C30.5777813,27.2669702 26.1046705,31.2238358 20.6064949,31.2238358 Z"/>
  </g>
</svg>
