<svg xmlns="http://www.w3.org/2000/svg" width="42" height="41" viewBox="0 0 42 41">
  <g fill="none" fill-rule="evenodd">
    <circle cx="20.606" cy="20.5" r="20" stroke="#87BCD2"/>
    <path fill="#87BCD2" fill-rule="nonzero" d="M31.2889099,8.56207601 C31.0967214,8.47831549 30.87552,8.52468793 30.7284083,8.67929394 L25.8107586,13.8505467 C24.2174496,13.0800435 22.4279027,12.6746239 20.6064504,12.6746239 C18.7849981,12.6746239 16.9954512,13.0800903 15.4021421,13.8505935 L10.484448,8.67924714 C10.3372918,8.52464114 10.1161349,8.47826869 9.92394634,8.56202921 C9.73175783,8.64578973 9.60645039,8.8429779 9.60645039,9.06173791 L9.60645039,22.5768953 C9.60645039,25.238842 10.7615839,27.736122 12.8591041,29.6087545 C14.9324617,31.4597684 17.6838412,32.4791667 20.6064504,32.4791667 C23.5290596,32.4791667 26.2804836,31.4597216 28.3537967,29.6087545 C30.4512724,27.736122 31.6064504,25.2388888 31.6064504,22.5768953 L31.6064504,9.06173791 C31.6064504,8.8429779 31.4810984,8.64578973 31.2889099,8.56207601 Z M20.6064949,31.3974861 C15.1083193,31.3974861 10.635075,27.4405738 10.635075,22.5768953 L10.635075,10.3674661 L14.4774213,14.4079519 C13.9054836,14.7985847 13.4122635,15.2417668 13.0052813,15.7332398 C12.8187441,15.9585041 12.8412158,16.3001441 13.0553865,16.4963028 C13.1528379,16.5855382 13.2731616,16.6292434 13.3929512,16.6292434 C13.5365475,16.6292434 13.6784083,16.5654637 13.7810661,16.4435664 C14.6489625,15.413312 15.8686187,14.8253974 15.9312279,14.7873075 C17.3654107,14.1122164 18.9704229,13.7563044 20.6064504,13.7563044 C22.3097594,13.7563044 23.9800062,14.1409945 25.458198,14.8712084 C25.4814261,14.889879 26.9710984,15.6883179 27.4318347,16.4436132 C27.5154472,16.5806716 27.6763533,16.6292902 27.8199496,16.6292902 C27.9397392,16.6292902 28.0600183,16.5855382 28.1575143,16.4963496 C28.3717295,16.3001909 28.3941567,15.9585509 28.2076195,15.7332866 C27.8016607,15.243077 27.3080847,14.7995674 26.7353015,14.4082326 L30.5778703,10.3674661 L30.5778703,22.5769889 C30.5777813,27.4406205 26.1046705,31.3974861 20.6064949,31.3974861 Z"/>
  </g>
</svg>
