<?xml version="1.0" encoding="UTF-8"?>
<svg width="31px" height="31px" viewBox="0 0 31 31" version="1.1" xmlns="http://www.w3.org/2000/svg" xmlns:xlink="http://www.w3.org/1999/xlink">
    <!-- Generator: Sketch 48.1 (47250) - http://www.bohemiancoding.com/sketch -->
    <title>Artboard Copy 16</title>
    <desc>Created with Sketch.</desc>
    <defs></defs>
    <g id="Page-1" stroke="none" stroke-width="1" fill="none" fill-rule="evenodd">
        <g id="Artboard-Copy-16">
            <g id="Group-12-Copy-9" transform="translate(1.000000, 1.000000)" fill="#FFFFFF">
                <g id="Group-10" transform="translate(14.500000, 14.500000) rotate(-270.000000) translate(-14.500000, -14.500000) ">
                    <g id="Group-5">
                        <g id="History" transform="translate(6.787234, 8.021277)">
                            <path d="M15.2023312,2.74723413 C15.1726637,2.75887292 15.137656,2.75887292 15.1073951,2.75887292 C14.8047864,2.75887292 14.5377787,2.59592978 14.4013082,2.35733446 C14.3301061,2.2409465 14.2885716,2.10651841 14.2885716,1.96103346 C14.2885716,1.51934115 14.6564488,1.15853847 15.1073951,1.15853847 C15.5589348,1.15853847 15.9202851,1.51934115 15.9202851,1.96103346 C15.9202851,2.37479265 15.6064028,2.70649834 15.2023312,2.74723413 M11.7786995,9.45118061 L11.6896969,9.63158195 L11.6012877,9.45118061 C11.1912826,9.41626423 10.8708734,9.07291974 10.8708734,8.65974249 C10.8708734,8.51425754 10.9130013,8.37459199 10.9895435,8.25820403 C11.126014,8.01960871 11.3870882,7.85666556 11.6896969,7.85666556 C11.9923056,7.85666556 12.2533798,8.01960871 12.3898504,8.25820403 C12.4675793,8.37459199 12.5085204,8.51425754 12.5085204,8.65974249 C12.5085204,9.07291974 12.1881112,9.41626423 11.7786995,9.45118061 M8.97808565,2.35733446 C8.84161506,2.59592978 8.57460739,2.75887292 8.27199869,2.75887292 C7.93378898,2.75887292 7.64957414,2.56101339 7.52497056,2.27528095 L7.52497056,2.27004349 C7.48284268,2.17693312 7.45910867,2.07218396 7.45910867,1.96103346 C7.45910867,1.51934115 7.82164575,1.15853847 8.27199869,1.15853847 L8.2838657,1.15853847 L8.33133373,1.08812376 L8.37286826,1.17017727 C8.77634652,1.21091306 9.09082222,1.55425754 9.09082222,1.96103346 C9.09082222,2.10651841 9.0492877,2.2409465 8.97808565,2.35733446 M2.04181967,11.941883 C1.59087337,11.941883 1.22299614,11.5810803 1.22299614,11.138806 C1.22299614,10.7023512 1.59087337,10.3415485 2.04181967,10.3415485 L2.04775317,10.3415485 C2.38062273,10.3415485 2.66483757,10.5446455 2.78944115,10.8245585 L2.78944115,10.8303779 C2.83097568,10.9234883 2.85470969,11.0276555 2.85470969,11.138806 C2.85470969,11.5810803 2.49276596,11.941883 2.04181967,11.941883 M15.1073951,0.285628775 C14.163968,0.285628775 13.398546,1.03633112 13.398546,1.96103346 C13.398546,2.45626423 13.6180857,2.89853847 13.9681624,3.20696657 L12.0279066,7.01867225 C11.91517,6.99539466 11.8030268,6.98375587 11.6896969,6.98375587 C11.5775537,6.98375587 11.4642238,6.99539466 11.3514872,7.01867225 L9.41123143,3.20696657 C9.76130816,2.89853847 9.9808478,2.45626423 9.9808478,1.96103346 C9.9808478,1.03633112 9.2154258,0.285628775 8.27199869,0.285628775 C7.32857158,0.285628775 6.56908309,1.03633112 6.56908309,1.96103346 C6.56908309,2.38061205 6.7292877,2.76469232 6.99036187,3.06148162 L2.58176851,9.55592978 C2.41563041,9.4977358 2.23228514,9.46863881 2.04181967,9.46863881 C1.09839256,9.46863881 0.332970561,10.2193411 0.332970561,11.138806 C0.332970561,12.0640903 1.09839256,12.8147927 2.04181967,12.8147927 C2.98524678,12.8147927 3.74473527,12.0640903 3.74473527,11.138806 C3.74473527,10.7198094 3.58453066,10.3357291 3.32345649,10.0389398 L7.73204984,3.54449165 C7.89818795,3.60268563 8.08212657,3.63178262 8.27199869,3.63178262 C8.38473527,3.63178262 8.49747184,3.62014383 8.61080176,3.59686623 L10.5563977,7.40857192 C10.2003874,7.71118061 9.9808478,8.15927426 9.9808478,8.65974249 C9.9808478,9.58502677 10.7462698,10.3357291 11.6896969,10.3357291 C12.633124,10.3357291 13.398546,9.58502677 13.398546,8.65974249 C13.398546,8.15927426 13.1790064,7.71118061 12.8229961,7.40857192 L14.7697787,3.59686623 C14.881922,3.62014383 14.9946585,3.63178262 15.1073951,3.63178262 C16.0514156,3.63178262 16.8103107,2.88689968 16.8103107,1.96103346 C16.8103107,1.03633112 16.0514156,0.285628775 15.1073951,0.285628775" id="Fill-5"></path>
                        </g>
                        <circle id="Oval-12" stroke="#87BCD2" cx="14.5" cy="14.5" r="14.5"></circle>
                    </g>
                </g>
            </g>
            <text id="W" font-family="SofiaProRegular, Sofia Pro" font-size="16" font-weight="normal" fill="#85BCD3">
                <tspan x="8" y="21">W</tspan>
            </text>
        </g>
    </g>
</svg>