<svg xmlns="http://www.w3.org/2000/svg" xmlns:xlink="http://www.w3.org/1999/xlink" width="81" height="82" viewBox="0 0 81 82">
  <defs>
    <circle id="buttonautofeedinactive-copy-a" cx="38.696" cy="38.818" r="38.057"/>
  </defs>
  <g fill="none" fill-rule="evenodd" transform="translate(1.5 2.223)">
    <use fill="#87BCD2" xlink:href="#buttonautofeedinactive-copy-a"/>
    <circle cx="38.696" cy="38.818" r="39.057" stroke="#87BCD2" stroke-width="2"/>
    <path fill="#FFF" d="M28.1055551,32.8182324 L26.7855551,29.3782324 L21.2255551,29.3782324 L19.9055551,32.8182324 L17.6455551,32.8182324 L22.8455551,19.0382324 L25.1455551,19.0382324 L30.3455551,32.8182324 L28.1055551,32.8182324 Z M24.0055551,21.6982324 L21.9455551,27.4782324 L26.0655551,27.4782324 L24.0055551,21.6982324 Z M38.2055551,28.4982324 C38.2055551,30.3582324 37.0055551,31.0182324 35.8055551,31.0182324 C34.6855551,31.0182324 33.8655551,30.2182324 33.8655551,28.6782324 L33.8655551,23.4782324 L31.8055551,23.4782324 L31.8055551,28.9182324 C31.7855551,31.5582324 33.1455551,33.0182324 35.4255551,33.0182324 C36.4055551,33.0182324 37.6655551,32.5182324 38.2055551,31.4582324 L38.2055551,32.8182324 L40.2655551,32.8182324 L40.2655551,23.4782324 L38.2055551,23.4782324 L38.2055551,28.4982324 Z M45.9455551,19.9382324 L43.8855551,19.9382324 L43.8855551,23.4782324 L42.2055551,23.4782324 L42.2055551,25.1782324 L43.8855551,25.1782324 L43.8855551,32.8182324 L45.9455551,32.8182324 L45.9455551,25.1782324 L47.9255551,25.1782324 L47.9255551,23.4782324 L45.9455551,23.4782324 L45.9455551,19.9382324 Z M54.1255551,31.0182324 C55.6855551,31.0182324 56.9655551,29.8782324 56.9655551,28.1182324 C56.9655551,26.3982324 55.6855551,25.2982324 54.1255551,25.2982324 C52.5855551,25.2982324 51.3055551,26.3982324 51.3055551,28.1182324 C51.3055551,29.8782324 52.5855551,31.0182324 54.1255551,31.0182324 Z M54.1255551,33.0182324 C51.4855551,33.0182324 49.2655551,31.0782324 49.2655551,28.1182324 C49.2655551,25.1582324 51.4855551,23.2782324 54.1255551,23.2782324 C56.7855551,23.2782324 59.0255551,25.1582324 59.0255551,28.1182324 C59.0255551,31.0782324 56.7855551,33.0182324 54.1255551,33.0182324 Z M18.0855551,55.8182324 L20.2055551,55.8182324 L20.2055551,50.0182324 L25.0055551,50.0182324 L25.0055551,48.0782324 L20.2055551,48.0782324 L20.2055551,43.9982324 L26.2655551,43.9982324 L26.2655551,42.0382324 L18.0855551,42.0382324 L18.0855551,55.8182324 Z M37.1455551,51.1182324 C37.1455551,51.3382324 37.1455551,51.6782324 37.1255551,51.8782324 L29.7055551,51.8782324 C29.9055551,53.3182324 31.0655551,54.2182324 32.5655551,54.2182324 C33.6055551,54.2182324 34.6255551,53.7382324 35.1055551,52.8782324 C35.6255551,53.1182324 36.2455551,53.3782324 36.7855551,53.6182324 C35.9655551,55.2582324 34.2255551,56.0182324 32.4655551,56.0182324 C29.8055551,56.0182324 27.6655551,54.0782324 27.6655551,51.1182324 C27.6655551,48.1582324 29.8055551,46.2782324 32.4655551,46.2782324 C35.1255551,46.2782324 37.1455551,48.1582324 37.1455551,51.1182324 Z M29.7055551,50.3782324 L35.1255551,50.3782324 C34.9255551,48.9182324 33.8655551,48.0782324 32.4655551,48.0782324 C31.0255551,48.0782324 29.9055551,48.9382324 29.7055551,50.3782324 Z M48.2055551,51.1182324 C48.2055551,51.3382324 48.2055551,51.6782324 48.1855551,51.8782324 L40.7655551,51.8782324 C40.9655551,53.3182324 42.1255551,54.2182324 43.6255551,54.2182324 C44.6655551,54.2182324 45.6855551,53.7382324 46.1655551,52.8782324 C46.6855551,53.1182324 47.3055551,53.3782324 47.8455551,53.6182324 C47.0255551,55.2582324 45.2855551,56.0182324 43.5255551,56.0182324 C40.8655551,56.0182324 38.7255551,54.0782324 38.7255551,51.1182324 C38.7255551,48.1582324 40.8655551,46.2782324 43.5255551,46.2782324 C46.1855551,46.2782324 48.2055551,48.1582324 48.2055551,51.1182324 Z M40.7655551,50.3782324 L46.1855551,50.3782324 C45.9855551,48.9182324 44.9255551,48.0782324 43.5255551,48.0782324 C42.0855551,48.0782324 40.9655551,48.9382324 40.7655551,50.3782324 Z M57.6255551,55.8182324 L57.6255551,54.4582324 C57.0455551,55.4582324 55.7455551,56.0182324 54.4655551,56.0182324 C51.9455551,56.0182324 49.8055551,54.0982324 49.8055551,51.1582324 C49.8055551,48.1582324 51.9455551,46.2782324 54.4655551,46.2782324 C55.7855551,46.2782324 57.0455551,46.7982324 57.6255551,47.8182324 L57.6255551,41.3982324 L59.6655551,41.3982324 L59.6655551,55.8182324 L57.6255551,55.8182324 Z M57.5855551,51.1182324 C57.5855551,49.2782324 56.1255551,48.2782324 54.7255551,48.2782324 C53.1655551,48.2782324 51.9255551,49.3982324 51.9255551,51.1182324 C51.9255551,52.8382324 53.1655551,54.0182324 54.7255551,54.0182324 C56.2455551,54.0182324 57.5855551,52.9382324 57.5855551,51.1182324 Z"/>
  </g>
</svg>
