<svg xmlns="http://www.w3.org/2000/svg" width="81" height="81" viewBox="0 0 81 81">
  <g fill="none" fill-rule="evenodd" transform="translate(1.648 1.622)">
    <path fill="#87BCD2" d="M17.9392959,45.6950922 L20.0592959,45.6950922 L20.0592959,39.8950922 L24.8592959,39.8950922 L24.8592959,37.9550922 L20.0592959,37.9550922 L20.0592959,33.8750922 L26.1192959,33.8750922 L26.1192959,31.9150922 L17.9392959,31.9150922 L17.9392959,45.6950922 Z M36.9992959,40.9950922 C36.9992959,41.2150922 36.9992959,41.5550922 36.9792959,41.7550922 L29.5592959,41.7550922 C29.7592959,43.1950922 30.9192959,44.0950922 32.4192959,44.0950922 C33.4592959,44.0950922 34.4792959,43.6150922 34.9592959,42.7550922 C35.4792959,42.9950922 36.0992959,43.2550922 36.6392959,43.4950922 C35.8192959,45.1350922 34.0792959,45.8950922 32.3192959,45.8950922 C29.6592959,45.8950922 27.5192959,43.9550922 27.5192959,40.9950922 C27.5192959,38.0350922 29.6592959,36.1550922 32.3192959,36.1550922 C34.9792959,36.1550922 36.9992959,38.0350922 36.9992959,40.9950922 Z M29.5592959,40.2550922 L34.9792959,40.2550922 C34.7792959,38.7950922 33.7192959,37.9550922 32.3192959,37.9550922 C30.8792959,37.9550922 29.7592959,38.8150922 29.5592959,40.2550922 Z M48.0592959,40.9950922 C48.0592959,41.2150922 48.0592959,41.5550922 48.0392959,41.7550922 L40.6192959,41.7550922 C40.8192959,43.1950922 41.9792959,44.0950922 43.4792959,44.0950922 C44.5192959,44.0950922 45.5392959,43.6150922 46.0192959,42.7550922 C46.5392959,42.9950922 47.1592959,43.2550922 47.6992959,43.4950922 C46.8792959,45.1350922 45.1392959,45.8950922 43.3792959,45.8950922 C40.7192959,45.8950922 38.5792959,43.9550922 38.5792959,40.9950922 C38.5792959,38.0350922 40.7192959,36.1550922 43.3792959,36.1550922 C46.0392959,36.1550922 48.0592959,38.0350922 48.0592959,40.9950922 Z M40.6192959,40.2550922 L46.0392959,40.2550922 C45.8392959,38.7950922 44.7792959,37.9550922 43.3792959,37.9550922 C41.9392959,37.9550922 40.8192959,38.8150922 40.6192959,40.2550922 Z M57.4792959,45.6950922 L57.4792959,44.3350922 C56.8992959,45.3350922 55.5992959,45.8950922 54.3192959,45.8950922 C51.7992959,45.8950922 49.6592959,43.9750922 49.6592959,41.0350922 C49.6592959,38.0350922 51.7992959,36.1550922 54.3192959,36.1550922 C55.6392959,36.1550922 56.8992959,36.6750922 57.4792959,37.6950922 L57.4792959,31.2750922 L59.5192959,31.2750922 L59.5192959,45.6950922 L57.4792959,45.6950922 Z M57.4392959,40.9950922 C57.4392959,39.1550922 55.9792959,38.1550922 54.5792959,38.1550922 C53.0192959,38.1550922 51.7792959,39.2750922 51.7792959,40.9950922 C51.7792959,42.7150922 53.0192959,43.8950922 54.5792959,43.8950922 C56.0992959,43.8950922 57.4392959,42.8150922 57.4392959,40.9950922 Z"/>
    <circle cx="38.729" cy="38.585" r="39.017" stroke="#87BCD2" stroke-width="2"/>
  </g>
</svg>
