<svg xmlns="http://www.w3.org/2000/svg" xmlns:xlink="http://www.w3.org/1999/xlink" width="81" height="81" viewBox="0 0 81 81">
  <defs>
    <circle id="buttonfeedactive-a" cx="38.229" cy="38.207" r="38.017"/>
  </defs>
  <g fill="none" fill-rule="evenodd" transform="translate(2 2)">
    <use fill="#87BCD2" xlink:href="#buttonfeedactive-a"/>
    <circle cx="38.229" cy="38.207" r="39.017" stroke="#87BCD2" stroke-width="2"/>
    <path fill="#FFF" d="M17.4392959,45.3169533 L19.5592959,45.3169533 L19.5592959,39.5169533 L24.3592959,39.5169533 L24.3592959,37.5769533 L19.5592959,37.5769533 L19.5592959,33.4969533 L25.6192959,33.4969533 L25.6192959,31.5369533 L17.4392959,31.5369533 L17.4392959,45.3169533 Z M36.4992959,40.6169533 C36.4992959,40.8369533 36.4992959,41.1769533 36.4792959,41.3769533 L29.0592959,41.3769533 C29.2592959,42.8169533 30.4192959,43.7169533 31.9192959,43.7169533 C32.9592959,43.7169533 33.9792959,43.2369533 34.4592959,42.3769533 C34.9792959,42.6169533 35.5992959,42.8769533 36.1392959,43.1169533 C35.3192959,44.7569533 33.5792959,45.5169533 31.8192959,45.5169533 C29.1592959,45.5169533 27.0192959,43.5769533 27.0192959,40.6169533 C27.0192959,37.6569533 29.1592959,35.7769533 31.8192959,35.7769533 C34.4792959,35.7769533 36.4992959,37.6569533 36.4992959,40.6169533 Z M29.0592959,39.8769533 L34.4792959,39.8769533 C34.2792959,38.4169533 33.2192959,37.5769533 31.8192959,37.5769533 C30.3792959,37.5769533 29.2592959,38.4369533 29.0592959,39.8769533 Z M47.5592959,40.6169533 C47.5592959,40.8369533 47.5592959,41.1769533 47.5392959,41.3769533 L40.1192959,41.3769533 C40.3192959,42.8169533 41.4792959,43.7169533 42.9792959,43.7169533 C44.0192959,43.7169533 45.0392959,43.2369533 45.5192959,42.3769533 C46.0392959,42.6169533 46.6592959,42.8769533 47.1992959,43.1169533 C46.3792959,44.7569533 44.6392959,45.5169533 42.8792959,45.5169533 C40.2192959,45.5169533 38.0792959,43.5769533 38.0792959,40.6169533 C38.0792959,37.6569533 40.2192959,35.7769533 42.8792959,35.7769533 C45.5392959,35.7769533 47.5592959,37.6569533 47.5592959,40.6169533 Z M40.1192959,39.8769533 L45.5392959,39.8769533 C45.3392959,38.4169533 44.2792959,37.5769533 42.8792959,37.5769533 C41.4392959,37.5769533 40.3192959,38.4369533 40.1192959,39.8769533 Z M56.9792959,45.3169533 L56.9792959,43.9569533 C56.3992959,44.9569533 55.0992959,45.5169533 53.8192959,45.5169533 C51.2992959,45.5169533 49.1592959,43.5969533 49.1592959,40.6569533 C49.1592959,37.6569533 51.2992959,35.7769533 53.8192959,35.7769533 C55.1392959,35.7769533 56.3992959,36.2969533 56.9792959,37.3169533 L56.9792959,30.8969533 L59.0192959,30.8969533 L59.0192959,45.3169533 L56.9792959,45.3169533 Z M56.9392959,40.6169533 C56.9392959,38.7769533 55.4792959,37.7769533 54.0792959,37.7769533 C52.5192959,37.7769533 51.2792959,38.8969533 51.2792959,40.6169533 C51.2792959,42.3369533 52.5192959,43.5169533 54.0792959,43.5169533 C55.5992959,43.5169533 56.9392959,42.4369533 56.9392959,40.6169533 Z"/>
  </g>
</svg>
