<?xml version="1.0" encoding="UTF-8"?>
<svg width="80px" height="80px" viewBox="0 0 80 80" version="1.1" xmlns="http://www.w3.org/2000/svg" xmlns:xlink="http://www.w3.org/1999/xlink">
    <!-- Generator: Sketch 48.2 (47327) - http://www.bohemiancoding.com/sketch -->
    <title>autofeedButtonActive</title>
    <desc>Created with Sketch.</desc>
    <defs></defs>
    <g id="Page-1" stroke="none" stroke-width="1" fill="none" fill-rule="evenodd">
        <g id="autofeedButtonActive">
            <circle id="Oval-11-Copy-7" fill="#87BCD2" cx="40" cy="40" r="40"></circle>
            <path d="M29.91,35 L28.59,31.56 L23.03,31.56 L21.71,35 L19.45,35 L24.65,21.22 L26.95,21.22 L32.15,35 L29.91,35 Z M25.81,23.88 L23.75,29.66 L27.87,29.66 L25.81,23.88 Z M40.01,30.68 L40.01,25.66 L42.07,25.66 L42.07,35 L40.01,35 L40.01,33.64 C39.47,34.7 38.21,35.2 37.23,35.2 C34.95,35.2 33.59,33.74 33.61,31.1 L33.61,25.66 L35.67,25.66 L35.67,30.86 C35.67,32.4 36.49,33.2 37.61,33.2 C38.81,33.2 40.01,32.54 40.01,30.68 Z M47.75,22.12 L47.75,25.66 L49.73,25.66 L49.73,27.36 L47.75,27.36 L47.75,35 L45.69,35 L45.69,27.36 L44.01,27.36 L44.01,25.66 L45.69,25.66 L45.69,22.12 L47.75,22.12 Z M55.93,33.2 C57.49,33.2 58.77,32.06 58.77,30.3 C58.77,28.58 57.49,27.48 55.93,27.48 C54.39,27.48 53.11,28.58 53.11,30.3 C53.11,32.06 54.39,33.2 55.93,33.2 Z M55.93,35.2 C53.29,35.2 51.07,33.26 51.07,30.3 C51.07,27.34 53.29,25.46 55.93,25.46 C58.59,25.46 60.83,27.34 60.83,30.3 C60.83,33.26 58.59,35.2 55.93,35.2 Z M19.89,55 L19.89,41.22 L28.07,41.22 L28.07,43.18 L22.01,43.18 L22.01,47.26 L26.81,47.26 L26.81,49.2 L22.01,49.2 L22.01,55 L19.89,55 Z M38.95,50.3 C38.95,50.52 38.95,50.86 38.93,51.06 L31.51,51.06 C31.71,52.5 32.87,53.4 34.37,53.4 C35.41,53.4 36.43,52.92 36.91,52.06 C37.43,52.3 38.05,52.56 38.59,52.8 C37.77,54.44 36.03,55.2 34.27,55.2 C31.61,55.2 29.47,53.26 29.47,50.3 C29.47,47.34 31.61,45.46 34.27,45.46 C36.93,45.46 38.95,47.34 38.95,50.3 Z M31.51,49.56 L36.93,49.56 C36.73,48.1 35.67,47.26 34.27,47.26 C32.83,47.26 31.71,48.12 31.51,49.56 Z M50.01,50.3 C50.01,50.52 50.01,50.86 49.99,51.06 L42.57,51.06 C42.77,52.5 43.93,53.4 45.43,53.4 C46.47,53.4 47.49,52.92 47.97,52.06 C48.49,52.3 49.11,52.56 49.65,52.8 C48.83,54.44 47.09,55.2 45.33,55.2 C42.67,55.2 40.53,53.26 40.53,50.3 C40.53,47.34 42.67,45.46 45.33,45.46 C47.99,45.46 50.01,47.34 50.01,50.3 Z M42.57,49.56 L47.99,49.56 C47.79,48.1 46.73,47.26 45.33,47.26 C43.89,47.26 42.77,48.12 42.57,49.56 Z M59.43,55 L59.43,53.64 C58.85,54.64 57.55,55.2 56.27,55.2 C53.75,55.2 51.61,53.28 51.61,50.34 C51.61,47.34 53.75,45.46 56.27,45.46 C57.59,45.46 58.85,45.98 59.43,47 L59.43,40.58 L61.47,40.58 L61.47,55 L59.43,55 Z M59.39,50.3 C59.39,48.46 57.93,47.46 56.53,47.46 C54.97,47.46 53.73,48.58 53.73,50.3 C53.73,52.02 54.97,53.2 56.53,53.2 C58.05,53.2 59.39,52.12 59.39,50.3 Z" id="Auto-Feed" fill="#FFFFFF"></path>
        </g>
    </g>
</svg>