<?xml version="1.0" encoding="UTF-8"?>
<svg width="80px" height="80px" viewBox="0 0 80 80" version="1.1" xmlns="http://www.w3.org/2000/svg" xmlns:xlink="http://www.w3.org/1999/xlink">
    <!-- Generator: Sketch 48.2 (47327) - http://www.bohemiancoding.com/sketch -->
    <title>autofeedButtonInactive</title>
    <desc>Created with Sketch.</desc>
    <defs></defs>
    <g id="Page-1" stroke="none" stroke-width="1" fill="none" fill-rule="evenodd">
        <g id="autofeedButtonInactive">
            <circle id="Oval-11-Copy-6" stroke="#87BCD2" stroke-width="2" cx="40" cy="40" r="39"></circle>
            <path d="M30.05,35 L28.73,31.56 L23.17,31.56 L21.85,35 L19.59,35 L24.79,21.22 L27.09,21.22 L32.29,35 L30.05,35 Z M25.95,23.88 L23.89,29.66 L28.01,29.66 L25.95,23.88 Z M40.01,30.68 L40.01,25.66 L42.07,25.66 L42.07,35 L40.01,35 L40.01,33.64 C39.47,34.7 38.21,35.2 37.23,35.2 C34.95,35.2 33.59,33.74 33.61,31.1 L33.61,25.66 L35.67,25.66 L35.67,30.86 C35.67,32.4 36.49,33.2 37.61,33.2 C38.81,33.2 40.01,32.54 40.01,30.68 Z M47.75,22.12 L47.75,25.66 L49.73,25.66 L49.73,27.36 L47.75,27.36 L47.75,35 L45.69,35 L45.69,27.36 L44.01,27.36 L44.01,25.66 L45.69,25.66 L45.69,22.12 L47.75,22.12 Z M55.79,33.2 C57.35,33.2 58.63,32.06 58.63,30.3 C58.63,28.58 57.35,27.48 55.79,27.48 C54.25,27.48 52.97,28.58 52.97,30.3 C52.97,32.06 54.25,33.2 55.79,33.2 Z M55.79,35.2 C53.15,35.2 50.93,33.26 50.93,30.3 C50.93,27.34 53.15,25.46 55.79,25.46 C58.45,25.46 60.69,27.34 60.69,30.3 C60.69,33.26 58.45,35.2 55.79,35.2 Z M20.27,55 L20.27,41.22 L28.45,41.22 L28.45,43.18 L22.39,43.18 L22.39,47.26 L27.19,47.26 L27.19,49.2 L22.39,49.2 L22.39,55 L20.27,55 Z M38.57,50.3 C38.57,50.52 38.57,50.86 38.55,51.06 L31.13,51.06 C31.33,52.5 32.49,53.4 33.99,53.4 C35.03,53.4 36.05,52.92 36.53,52.06 C37.05,52.3 37.67,52.56 38.21,52.8 C37.39,54.44 35.65,55.2 33.89,55.2 C31.23,55.2 29.09,53.26 29.09,50.3 C29.09,47.34 31.23,45.46 33.89,45.46 C36.55,45.46 38.57,47.34 38.57,50.3 Z M31.13,49.56 L36.55,49.56 C36.35,48.1 35.29,47.26 33.89,47.26 C32.45,47.26 31.33,48.12 31.13,49.56 Z M49.63,50.3 C49.63,50.52 49.63,50.86 49.61,51.06 L42.19,51.06 C42.39,52.5 43.55,53.4 45.05,53.4 C46.09,53.4 47.11,52.92 47.59,52.06 C48.11,52.3 48.73,52.56 49.27,52.8 C48.45,54.44 46.71,55.2 44.95,55.2 C42.29,55.2 40.15,53.26 40.15,50.3 C40.15,47.34 42.29,45.46 44.95,45.46 C47.61,45.46 49.63,47.34 49.63,50.3 Z M42.19,49.56 L47.61,49.56 C47.41,48.1 46.35,47.26 44.95,47.26 C43.51,47.26 42.39,48.12 42.19,49.56 Z M59.05,55 L59.05,53.64 C58.47,54.64 57.17,55.2 55.89,55.2 C53.37,55.2 51.23,53.28 51.23,50.34 C51.23,47.34 53.37,45.46 55.89,45.46 C57.21,45.46 58.47,45.98 59.05,47 L59.05,40.58 L61.09,40.58 L61.09,55 L59.05,55 Z M59.01,50.3 C59.01,48.46 57.55,47.46 56.15,47.46 C54.59,47.46 53.35,48.58 53.35,50.3 C53.35,52.02 54.59,53.2 56.15,53.2 C57.67,53.2 59.01,52.12 59.01,50.3 Z" id="Auto-Feed" fill="#87BCD2"></path>
        </g>
    </g>
</svg>