<?xml version="1.0" encoding="UTF-8"?>
<svg width="80px" height="80px" viewBox="0 0 80 80" version="1.1" xmlns="http://www.w3.org/2000/svg" xmlns:xlink="http://www.w3.org/1999/xlink">
    <!-- Generator: Sketch 48.2 (47327) - http://www.bohemiancoding.com/sketch -->
    <title>feedButtonActive</title>
    <desc>Created with Sketch.</desc>
    <defs></defs>
    <g id="Page-1" stroke="none" stroke-width="1" fill="none" fill-rule="evenodd">
        <g id="feedButtonActive">
            <circle id="Oval-11-Copy-7" fill="#87BCD2" cx="40" cy="40" r="40"></circle>
            <path d="M19.27,47 L19.27,33.22 L27.45,33.22 L27.45,35.18 L21.39,35.18 L21.39,39.26 L26.19,39.26 L26.19,41.2 L21.39,41.2 L21.39,47 L19.27,47 Z M37.57,42.3 C37.57,42.52 37.57,42.86 37.55,43.06 L30.13,43.06 C30.33,44.5 31.49,45.4 32.99,45.4 C34.03,45.4 35.05,44.92 35.53,44.06 C36.05,44.3 36.67,44.56 37.21,44.8 C36.39,46.44 34.65,47.2 32.89,47.2 C30.23,47.2 28.09,45.26 28.09,42.3 C28.09,39.34 30.23,37.46 32.89,37.46 C35.55,37.46 37.57,39.34 37.57,42.3 Z M30.13,41.56 L35.55,41.56 C35.35,40.1 34.29,39.26 32.89,39.26 C31.45,39.26 30.33,40.12 30.13,41.56 Z M48.63,42.3 C48.63,42.52 48.63,42.86 48.61,43.06 L41.19,43.06 C41.39,44.5 42.55,45.4 44.05,45.4 C45.09,45.4 46.11,44.92 46.59,44.06 C47.11,44.3 47.73,44.56 48.27,44.8 C47.45,46.44 45.71,47.2 43.95,47.2 C41.29,47.2 39.15,45.26 39.15,42.3 C39.15,39.34 41.29,37.46 43.95,37.46 C46.61,37.46 48.63,39.34 48.63,42.3 Z M41.19,41.56 L46.61,41.56 C46.41,40.1 45.35,39.26 43.95,39.26 C42.51,39.26 41.39,40.12 41.19,41.56 Z M58.05,47 L58.05,45.64 C57.47,46.64 56.17,47.2 54.89,47.2 C52.37,47.2 50.23,45.28 50.23,42.34 C50.23,39.34 52.37,37.46 54.89,37.46 C56.21,37.46 57.47,37.98 58.05,39 L58.05,32.58 L60.09,32.58 L60.09,47 L58.05,47 Z M58.01,42.3 C58.01,40.46 56.55,39.46 55.15,39.46 C53.59,39.46 52.35,40.58 52.35,42.3 C52.35,44.02 53.59,45.2 55.15,45.2 C56.67,45.2 58.01,44.12 58.01,42.3 Z" id="Feed-Copy" fill="#FFFFFF"></path>
        </g>
    </g>
</svg>