<svg xmlns="http://www.w3.org/2000/svg" width="192" height="32" viewBox="0 0 192 32">
  <g fill="none" fill-rule="evenodd" transform="translate(1)">
    <path fill="#4A4A4A" d="M15.868 21L17.308 21 17.308 10.456 14.172 11.592 14.172 12.968 15.868 12.376 15.868 21zM19.804 20.36L19.804 21 26.252 21 26.252 19.56 22.268 19.56C23.724 17.848 23.756 17.784 25.1 16.216 25.772 15.448 26.236 14.52 26.236 13.512 26.236 11.672 24.78 10.424 22.956 10.424 21.324 10.424 19.948 11.48 19.676 13.176L21.068 13.512C21.212 12.472 22.012 11.864 22.956 11.864 23.98 11.864 24.812 12.504 24.812 13.512 24.812 14.104 24.508 14.68 24.044 15.224L19.804 20.36zM48.556 19.088C48.556 19.712 49.068 20.16 49.692 20.16 50.3 20.16 50.812 19.712 50.812 19.088 50.812 18.464 50.3 18 49.692 18 49.068 18 48.556 18.464 48.556 19.088zM48.556 13.456C48.556 14.08 49.068 14.544 49.692 14.544 50.3 14.544 50.812 14.08 50.812 13.456 50.812 12.816 50.3 12.368 49.692 12.368 49.068 12.368 48.556 12.816 48.556 13.456zM73.868 12.792C74.3 12.152 74.892 11.784 75.692 11.848 76.204 11.88 76.684 12.12 76.908 12.456 77.148 12.792 77.148 13.176 77.084 13.528 76.956 14.2 76.396 14.744 75.644 14.728L74.46 14.728 74.46 16.12 75.644 16.12C76.748 16.12 77.692 16.984 77.66 17.992 77.612 19.016 76.54 19.768 75.388 19.704L75.404 19.704C74.556 19.64 73.772 18.984 73.452 18.264L72.188 18.952C72.732 20.152 73.916 21.032 75.292 21.128 77.228 21.272 78.956 19.96 79.116 18.184 79.212 17.064 78.524 15.768 77.468 15.368 78.028 15.048 78.428 14.52 78.604 13.944 78.668 13.72 78.7 13.512 78.7 13.304 78.748 11.832 77.532 10.504 75.82 10.408 74.524 10.328 73.372 10.952 72.796 11.944L73.868 12.792zM81.116 15.8C81.116 12.824 81.9 10.424 84.908 10.424 87.932 10.424 88.684 12.824 88.684 15.8 88.684 18.744 87.932 21.144 84.908 21.144 81.9 21.144 81.116 18.744 81.116 15.8zM82.556 15.8C82.556 17.96 83.02 19.72 84.908 19.72 86.796 19.72 87.26 17.96 87.26 15.8 87.26 13.624 86.796 11.864 84.908 11.864 83.02 11.864 82.556 13.624 82.556 15.8z"/>
    <path stroke="#87BCD2" stroke-linecap="round" stroke-linejoin="round" d="M0 1L190 1M.5 31L190.5 31"/>
    <path fill="#4A4A4A" d="M145.868 13.292C146.3 12.652 146.892 12.284 147.692 12.348 148.204 12.38 148.684 12.62 148.908 12.956 149.148 13.292 149.148 13.676 149.084 14.028 148.956 14.7 148.396 15.244 147.644 15.228L146.46 15.228 146.46 16.62 147.644 16.62C148.748 16.62 149.692 17.484 149.66 18.492 149.612 19.516 148.54 20.268 147.388 20.204L147.404 20.204C146.556 20.14 145.772 19.484 145.452 18.764L144.188 19.452C144.732 20.652 145.916 21.532 147.292 21.628 149.228 21.772 150.956 20.46 151.116 18.684 151.212 17.564 150.524 16.268 149.468 15.868 150.028 15.548 150.428 15.02 150.604 14.444 150.668 14.22 150.7 14.012 150.7 13.804 150.748 12.332 149.532 11.004 147.82 10.908 146.524 10.828 145.372 11.452 144.796 12.444L145.868 13.292zM153.116 16.3C153.116 13.324 153.9 10.924 156.908 10.924 159.932 10.924 160.684 13.324 160.684 16.3 160.684 19.244 159.932 21.644 156.908 21.644 153.9 21.644 153.116 19.244 153.116 16.3zM154.556 16.3C154.556 18.46 155.02 20.22 156.908 20.22 158.796 20.22 159.26 18.46 159.26 16.3 159.26 14.124 158.796 12.364 156.908 12.364 155.02 12.364 154.556 14.124 154.556 16.3zM172.252 22.304C172.588 22.928 173.248 23.264 173.872 23.264 175.084 23.264 175.864 22.58 175.864 20.72 175.864 20.672 175.852 20.636 175.852 20.588 175.516 21.248 174.664 21.62 173.884 21.62 172.348 21.62 171.04 20.492 171.04 18.716 171.04 16.928 172.348 15.776 173.884 15.776 174.664 15.776 175.48 16.124 175.852 16.772L175.852 15.896 176.932 15.896 176.932 20.648C176.932 23.288 175.72 24.296 173.872 24.296 172.84 24.296 171.88 23.768 171.34 22.784 171.484 22.724 172.108 22.376 172.252 22.304zM175.84 18.704C175.84 17.504 174.976 16.844 173.98 16.844 172.972 16.844 172.156 17.612 172.156 18.704 172.156 19.844 172.972 20.552 173.98 20.552 174.88 20.552 175.84 19.892 175.84 18.704z"/>
  </g>
</svg>
