<svg xmlns="http://www.w3.org/2000/svg" width="191" height="32" viewBox="0 0 191 32">
  <g fill="none" fill-rule="evenodd" transform="translate(0 -1)">
    <path stroke="#87BCD2" stroke-linecap="round" stroke-linejoin="round" d="M62,32 L102,32"/>
    <path fill="#4A4A4A" d="M16.868 22L18.308 22 18.308 11.456 15.172 12.592 15.172 13.968 16.868 13.376 16.868 22zM20.804 21.36L20.804 22 27.252 22 27.252 20.56 23.268 20.56C24.724 18.848 24.756 18.784 26.1 17.216 26.772 16.448 27.236 15.52 27.236 14.512 27.236 12.672 25.78 11.424 23.956 11.424 22.324 11.424 20.948 12.48 20.676 14.176L22.068 14.512C22.212 13.472 23.012 12.864 23.956 12.864 24.98 12.864 25.812 13.504 25.812 14.512 25.812 15.104 25.508 15.68 25.044 16.224L20.804 21.36zM49.556 20.088C49.556 20.712 50.068 21.16 50.692 21.16 51.3 21.16 51.812 20.712 51.812 20.088 51.812 19.464 51.3 19 50.692 19 50.068 19 49.556 19.464 49.556 20.088zM49.556 14.456C49.556 15.08 50.068 15.544 50.692 15.544 51.3 15.544 51.812 15.08 51.812 14.456 51.812 13.816 51.3 13.368 50.692 13.368 50.068 13.368 49.556 13.816 49.556 14.456zM74.868 13.792C75.3 13.152 75.892 12.784 76.692 12.848 77.204 12.88 77.684 13.12 77.908 13.456 78.148 13.792 78.148 14.176 78.084 14.528 77.956 15.2 77.396 15.744 76.644 15.728L75.46 15.728 75.46 17.12 76.644 17.12C77.748 17.12 78.692 17.984 78.66 18.992 78.612 20.016 77.54 20.768 76.388 20.704L76.404 20.704C75.556 20.64 74.772 19.984 74.452 19.264L73.188 19.952C73.732 21.152 74.916 22.032 76.292 22.128 78.228 22.272 79.956 20.96 80.116 19.184 80.212 18.064 79.524 16.768 78.468 16.368 79.028 16.048 79.428 15.52 79.604 14.944 79.668 14.72 79.7 14.512 79.7 14.304 79.748 12.832 78.532 11.504 76.82 11.408 75.524 11.328 74.372 11.952 73.796 12.944L74.868 13.792zM82.116 16.8C82.116 13.824 82.9 11.424 85.908 11.424 88.932 11.424 89.684 13.824 89.684 16.8 89.684 19.744 88.932 22.144 85.908 22.144 82.9 22.144 82.116 19.744 82.116 16.8zM83.556 16.8C83.556 18.96 84.02 20.72 85.908 20.72 87.796 20.72 88.26 18.96 88.26 16.8 88.26 14.624 87.796 12.864 85.908 12.864 84.02 12.864 83.556 14.624 83.556 16.8z"/>
    <path stroke="#87BCD2" stroke-linecap="round" stroke-linejoin="round" d="M1 32L41 32M1 2L41 2M61 2L101 2"/>
    <path fill="#4A4A4A" d="M146.868,14.292 C147.3,13.652 147.892,13.284 148.692,13.348 C149.204,13.38 149.684,13.62 149.908,13.956 C150.148,14.292 150.148,14.676 150.084,15.028 C149.956,15.7 149.396,16.244 148.644,16.228 L147.46,16.228 L147.46,17.62 L148.644,17.62 C149.748,17.62 150.692,18.484 150.66,19.492 C150.612,20.516 149.54,21.268 148.388,21.204 L148.404,21.204 C147.556,21.14 146.772,20.484 146.452,19.764 L145.188,20.452 C145.732,21.652 146.916,22.532 148.292,22.628 C150.228,22.772 151.956,21.46 152.116,19.684 C152.212,18.564 151.524,17.268 150.468,16.868 C151.028,16.548 151.428,16.02 151.604,15.444 C151.668,15.22 151.7,15.012 151.7,14.804 C151.748,13.332 150.532,12.004 148.82,11.908 C147.524,11.828 146.372,12.452 145.796,13.444 L146.868,14.292 Z M154.116,17.3 C154.116,14.324 154.9,11.924 157.908,11.924 C160.932,11.924 161.684,14.324 161.684,17.3 C161.684,20.244 160.932,22.644 157.908,22.644 C154.9,22.644 154.116,20.244 154.116,17.3 Z M155.556,17.3 C155.556,19.46 156.02,21.22 157.908,21.22 C159.796,21.22 160.26,19.46 160.26,17.3 C160.26,15.124 159.796,13.364 157.908,13.364 C156.02,13.364 155.556,15.124 155.556,17.3 Z"/>
    <path stroke="#87BCD2" stroke-linecap="round" stroke-linejoin="round" d="M132.5 2.5L190.5 2.5M131.5 32.5L190.5 32.5"/>
    <path fill="#4A4A4A" d="M173.252,23.304 C173.588,23.928 174.248,24.264 174.872,24.264 C176.084,24.264 176.864,23.58 176.864,21.72 C176.864,21.672 176.852,21.636 176.852,21.588 C176.516,22.248 175.664,22.62 174.884,22.62 C173.348,22.62 172.04,21.492 172.04,19.716 C172.04,17.928 173.348,16.776 174.884,16.776 C175.664,16.776 176.48,17.124 176.852,17.772 L176.852,16.896 L177.932,16.896 L177.932,21.648 C177.932,24.288 176.72,25.296 174.872,25.296 C173.84,25.296 172.88,24.768 172.34,23.784 C172.484,23.724 173.108,23.376 173.252,23.304 Z M176.84,19.704 C176.84,18.504 175.976,17.844 174.98,17.844 C173.972,17.844 173.156,18.612 173.156,19.704 C173.156,20.844 173.972,21.552 174.98,21.552 C175.88,21.552 176.84,20.892 176.84,19.704 Z"/>
  </g>
</svg>
